<svg xmlns="http://www.w3.org/2000/svg" width="24" height="18" viewBox="0 0 24 18" fill="none">
<path d="M21 5V4L18 6L15 4V5L17.72 6.82C17.8016 6.87376 17.8972 6.90242 17.995 6.90242C18.0928 6.90242 18.1884 6.87376 18.27 6.82L21 5ZM22 0H2C0.9 0 0 0.9 0 2V16C0 17.1 0.9 18 2 18H22C23.1 18 23.99 17.1 23.99 16L24 2C24 0.9 23.1 0 22 0ZM8 3C9.66 3 11 4.34 11 6C11 7.66 9.66 9 8 9C6.34 9 5 7.66 5 6C5 4.34 6.34 3 8 3ZM14 15H2V14C2 12 6 10.9 8 10.9C10 10.9 14 12 14 14V15ZM21.5 9H14.5C14.22 9 14 8.78 14 8.5V3.5C14 3.22 14.22 3 14.5 3H21.5C21.78 3 22 3.22 22 3.5V8.5C22 8.78 21.78 9 21.5 9Z" fill="#44713C"/>
</svg>
