<svg xmlns="http://www.w3.org/2000/svg" width="24" height="24" viewBox="0 0 24 24" >
<path d="M5.68163 16.9469L3.23265 14.4979C3.66367 14.4979 4.32653 13.6816 4.60408 13.2734V11.6081C4.4898 11.5102 4.14367 11.2751 3.67347 11.1183C3.20327 10.9616 2.82449 11.3796 2.69388 11.6081V12.6367C2.7102 12.751 2.6449 12.9698 2.25306 12.9306C1.86122 12.8914 1.79592 12.7183 1.81224 12.6367V11.3142C1.77959 11.151 1.54776 10.8049 0.881633 10.7265C0.21551 10.6481 0.0163265 11.0857 0 11.3142V14.302L5.68163 19.7877V16.9469Z" />
<path d="M5.68163 5.04487V8.91425C4.86531 8.37548 3.03673 7.10201 2.25306 6.31834C1.46939 5.53466 0.42449 3.99997 0 3.33058V1.27344H1.81224V3.13466H3.67347V5.04487H5.68163Z" />
<path d="M17.1429 12.3918V5.77956C17.6816 6.35099 19.151 8.01303 20.7184 10.0898C22.2857 12.1665 23.5592 15.2979 24 16.604H21.3061C21.1755 16.5061 20.6498 16.1534 19.5918 15.5265C18.5339 14.8996 17.5184 13.1755 17.1429 12.3918Z" />
<path  d="M11.3143 0C9.12317 0 7.34692 1.77625 7.34692 3.96735V19.151C7.34692 21.3421 9.12317 23.1184 11.3143 23.1184C13.5054 23.1184 15.2816 21.3421 15.2816 19.151V3.96735C15.2816 1.77624 13.5054 0 11.3143 0ZM11.3143 18.4163C10.6921 18.4163 10.1878 18.9206 10.1878 19.5428C10.1878 20.165 10.6921 20.6693 11.3143 20.6693H11.4123C12.0344 20.6693 12.5388 20.165 12.5388 19.5428C12.5388 18.9206 12.0344 18.4163 11.4123 18.4163H11.3143Z" />
</svg>
