<svg xmlns="http://www.w3.org/2000/svg" width="24" height="25" viewBox="0 0 24 25" fill="none">
<path d="M12.7189 13.6037C12.3871 12.6083 12.6083 11.8341 12.7189 11.3917C12.6083 10.9493 12.3871 10.2857 12.6083 9.29032C12.9401 8.40553 13.4931 7.96313 13.8249 7.63134C13.9355 7.18894 14.1567 6.52535 15.0415 5.86175C15.8157 5.30876 16.5899 5.30876 17.0323 5.30876C17.1429 5.19816 17.3641 5.08756 17.5853 4.97696V1.76959C17.6959 0.774193 16.9217 0 15.9263 0H1.76959C0.774193 0 0 0.774193 0 1.76959V12.6083C0 13.6037 0.774193 14.3779 1.76959 14.3779H13.1613C12.9401 14.1567 12.8295 13.9355 12.7189 13.6037ZM2.21198 4.42396V2.21198L8.84793 5.52995L15.4839 2.21198V4.42396L8.84793 7.74194L2.21198 4.42396ZM23.8894 9.84332C23.6682 9.17972 23.1152 9.06912 22.7834 8.73733C22.5622 8.40553 22.5622 7.74194 22.0092 7.41014C21.4562 6.96774 20.9032 7.18894 20.4608 7.07834C20.0184 6.96774 19.6866 6.41475 19.023 6.41475C18.3594 6.41475 18.0276 6.85714 17.5853 7.07834C17.1429 7.18894 16.5899 6.96774 16.0369 7.41014C15.4839 7.74194 15.5945 8.29493 15.2627 8.73733C14.9309 9.06912 14.3779 9.29032 14.1567 9.84332C13.9355 10.5069 14.3779 10.9493 14.3779 11.3917C14.3779 11.8341 13.9355 12.2765 14.1567 12.9401C14.3779 13.6037 14.9309 13.7143 15.2627 14.0461C15.4839 14.3779 15.4839 15.0415 16.0369 15.3733C16.5899 15.8157 17.1429 15.5945 17.5853 15.7051C18.0276 15.8157 18.3594 16.3687 19.023 16.3687C19.6866 16.3687 20.0184 15.9263 20.4608 15.7051C20.9032 15.5945 21.4562 15.8157 22.0092 15.3733C22.5622 14.9309 22.5622 14.3779 22.7834 14.0461C23.1152 13.7143 23.6682 13.4931 23.8894 12.9401C24.1106 12.2765 23.6682 11.8341 23.6682 11.3917C23.6682 10.9493 24.1106 10.5069 23.8894 9.84332ZM19.023 14.8203C17.1429 14.8203 15.7051 13.2719 15.7051 11.5023C15.7051 9.73272 17.2535 8.18433 19.023 8.18433C20.7926 8.18433 22.341 9.73272 22.341 11.5023C22.341 13.2719 20.9032 14.8203 19.023 14.8203ZM20.682 11.3917C20.682 12.2765 19.9078 13.0507 19.023 13.0507C18.1382 13.0507 17.3641 12.2765 17.3641 11.3917C17.3641 10.5069 18.1382 9.73272 19.023 9.73272C19.9078 9.73272 20.682 10.5069 20.682 11.3917ZM20.4608 17.8065L19.9078 20.7926L19.2442 24.2212L17.0323 22.1198L14.3779 23.3364L15.4839 17.0323C15.9263 17.2535 16.4793 17.3641 17.0323 17.3641C17.3641 17.5853 17.8065 17.8065 18.1382 17.9171C18.3594 18.0277 18.6912 18.0276 19.023 18.0276C19.576 18.1382 20.0184 18.0276 20.4608 17.8065ZM24 20.4608L21.788 19.6866L22.2304 17.2535L22.894 16.9217L23.0046 16.8111L24 20.4608Z" fill="#44713C"/>
</svg>
