<svg xmlns="http://www.w3.org/2000/svg" width="24" height="25" viewBox="0 0 24 25" >
<path d="M12 12.5C13.278 12.5 14.5272 12.1334 15.5898 11.4467C16.6524 10.7599 17.4806 9.78381 17.9697 8.64177C18.4587 7.49974 18.5867 6.24307 18.3374 5.03069C18.0881 3.81831 17.4727 2.70466 16.569 1.83059C15.6653 0.956507 14.514 0.361252 13.2606 0.120095C12.0072 -0.121063 10.708 0.00270802 9.52728 0.475756C8.34658 0.948803 7.33743 1.74988 6.62743 2.77769C5.91742 3.8055 5.53846 5.01387 5.53846 6.25C5.53846 7.9076 6.21923 9.49732 7.431 10.6694C8.64278 11.8415 10.2863 12.5 12 12.5ZM12 14.2857C7.995 14.2857 0 16.6786 0 21.4286V25H24V21.4286C24 16.6786 16.005 14.2857 12 14.2857Z" />
</svg>
